<mxfile host="app.diagrams.net" modified="2023-03-29T11:42:44.147Z" agent="Mozilla/5.0 (X11; Linux x86_64) AppleWebKit/537.36 (KHTML, like Gecko) Chrome/111.0.0.0 Safari/537.36" etag="G-l4F6bbMdsSHX3Fz4uO" version="21.1.1" type="github">
  <diagram name="第 1 页" id="nnr06dnKJYtgya7jrnHT">
    <mxGraphModel dx="2261" dy="769" grid="1" gridSize="10" guides="1" tooltips="1" connect="1" arrows="1" fold="1" page="1" pageScale="1" pageWidth="827" pageHeight="1169" math="0" shadow="0">
      <root>
        <mxCell id="0" />
        <mxCell id="1" parent="0" />
        <mxCell id="UK8yWLkQY4NRwHUQAjbO-15" value="" style="rounded=0;whiteSpace=wrap;html=1;dashed=1;dashPattern=12 12;fillColor=#f5f5f5;strokeColor=#666666;gradientColor=#b3b3b3;" vertex="1" parent="1">
          <mxGeometry x="200" y="270" width="740" height="510" as="geometry" />
        </mxCell>
        <mxCell id="UK8yWLkQY4NRwHUQAjbO-43" style="edgeStyle=orthogonalEdgeStyle;rounded=0;orthogonalLoop=1;jettySize=auto;html=1;" edge="1" parent="1" source="UK8yWLkQY4NRwHUQAjbO-1" target="UK8yWLkQY4NRwHUQAjbO-42">
          <mxGeometry relative="1" as="geometry" />
        </mxCell>
        <mxCell id="UK8yWLkQY4NRwHUQAjbO-1" value="&lt;font style=&quot;font-size: 16px;&quot;&gt;&lt;b&gt;模型forward&lt;/b&gt;&lt;/font&gt;" style="rounded=0;whiteSpace=wrap;html=1;fillColor=#fff2cc;strokeColor=#d6b656;labelPosition=center;verticalLabelPosition=middle;align=left;verticalAlign=middle;" vertex="1" parent="1">
          <mxGeometry x="240" y="310" width="540" height="320" as="geometry" />
        </mxCell>
        <mxCell id="UK8yWLkQY4NRwHUQAjbO-6" value="&lt;font style=&quot;font-size: 18px;&quot;&gt;&lt;b&gt;SDK配置&lt;/b&gt;&lt;/font&gt;" style="swimlane;fontStyle=0;childLayout=stackLayout;horizontal=1;startSize=30;horizontalStack=0;resizeParent=1;resizeParentMax=0;resizeLast=0;collapsible=1;marginBottom=0;whiteSpace=wrap;html=1;fillColor=#dae8fc;strokeColor=#6c8ebf;" vertex="1" parent="1">
          <mxGeometry x="-80" y="430" width="160" height="140" as="geometry" />
        </mxCell>
        <mxCell id="UK8yWLkQY4NRwHUQAjbO-7" value="&lt;font style=&quot;font-size: 16px;&quot;&gt;模型列表&lt;/font&gt;" style="text;strokeColor=none;fillColor=none;align=left;verticalAlign=middle;spacingLeft=4;spacingRight=4;overflow=hidden;points=[[0,0.5],[1,0.5]];portConstraint=eastwest;rotatable=0;whiteSpace=wrap;html=1;" vertex="1" parent="UK8yWLkQY4NRwHUQAjbO-6">
          <mxGeometry y="30" width="160" height="30" as="geometry" />
        </mxCell>
        <mxCell id="UK8yWLkQY4NRwHUQAjbO-8" value="&lt;font style=&quot;font-size: 16px;&quot;&gt;模型集成/级联规则&lt;/font&gt;" style="text;strokeColor=none;fillColor=none;align=left;verticalAlign=middle;spacingLeft=4;spacingRight=4;overflow=hidden;points=[[0,0.5],[1,0.5]];portConstraint=eastwest;rotatable=0;whiteSpace=wrap;html=1;" vertex="1" parent="UK8yWLkQY4NRwHUQAjbO-6">
          <mxGeometry y="60" width="160" height="30" as="geometry" />
        </mxCell>
        <object label="&lt;font style=&quot;font-size: 16px;&quot;&gt;优化参数&lt;/font&gt;" id="UK8yWLkQY4NRwHUQAjbO-9">
          <mxCell style="text;strokeColor=none;fillColor=none;align=left;verticalAlign=middle;spacingLeft=4;spacingRight=4;overflow=hidden;points=[[0,0.5],[1,0.5]];portConstraint=eastwest;rotatable=0;whiteSpace=wrap;html=1;" vertex="1" parent="UK8yWLkQY4NRwHUQAjbO-6">
            <mxGeometry y="90" width="160" height="50" as="geometry" />
          </mxCell>
        </object>
        <mxCell id="UK8yWLkQY4NRwHUQAjbO-11" value="" style="shape=flexArrow;endArrow=classic;html=1;rounded=0;" edge="1" parent="1">
          <mxGeometry width="50" height="50" relative="1" as="geometry">
            <mxPoint x="510" y="180" as="sourcePoint" />
            <mxPoint x="510" y="270" as="targetPoint" />
          </mxGeometry>
        </mxCell>
        <mxCell id="UK8yWLkQY4NRwHUQAjbO-16" value="&lt;font style=&quot;font-size: 16px;&quot;&gt;推理SDK&lt;/font&gt;" style="text;html=1;align=center;verticalAlign=middle;resizable=0;points=[];autosize=1;strokeColor=none;fillColor=none;" vertex="1" parent="1">
          <mxGeometry x="190" y="280" width="90" height="30" as="geometry" />
        </mxCell>
        <mxCell id="UK8yWLkQY4NRwHUQAjbO-23" value="&lt;font style=&quot;font-size: 16px;&quot;&gt;&lt;b&gt;feature&lt;/b&gt;&lt;/font&gt;" style="shape=parallelogram;perimeter=parallelogramPerimeter;whiteSpace=wrap;html=1;fixedSize=1;fillColor=#1ba1e2;strokeColor=#006EAF;fontColor=#ffffff;" vertex="1" parent="1">
          <mxGeometry x="460" y="110" width="120" height="60" as="geometry" />
        </mxCell>
        <mxCell id="UK8yWLkQY4NRwHUQAjbO-29" value="&lt;font style=&quot;font-size: 16px;&quot;&gt;treelite/cuml/ort&lt;/font&gt;" style="text;html=1;align=center;verticalAlign=middle;resizable=0;points=[];autosize=1;strokeColor=#ae4132;fillColor=#fad9d5;" vertex="1" parent="1">
          <mxGeometry x="790" y="344" width="130" height="30" as="geometry" />
        </mxCell>
        <mxCell id="UK8yWLkQY4NRwHUQAjbO-32" value="&lt;font style=&quot;font-size: 16px;&quot;&gt;ppl/openvino/ort&lt;/font&gt;" style="text;html=1;align=center;verticalAlign=middle;resizable=0;points=[];autosize=1;strokeColor=#10739e;fillColor=#b1ddf0;" vertex="1" parent="1">
          <mxGeometry x="790" y="300" width="140" height="30" as="geometry" />
        </mxCell>
        <mxCell id="UK8yWLkQY4NRwHUQAjbO-41" value="" style="group" vertex="1" connectable="0" parent="1">
          <mxGeometry x="280" y="330" width="409" height="286" as="geometry" />
        </mxCell>
        <mxCell id="UK8yWLkQY4NRwHUQAjbO-17" value="&lt;font style=&quot;font-size: 16px;&quot;&gt;&lt;b&gt;torch model (bagging)&lt;/b&gt;&lt;/font&gt;" style="rounded=0;whiteSpace=wrap;html=1;verticalAlign=top;fillColor=#f0a30a;fontColor=#000000;strokeColor=#BD7000;movable=1;resizable=1;rotatable=1;deletable=1;editable=1;locked=0;connectable=1;container=0;" vertex="1" parent="UK8yWLkQY4NRwHUQAjbO-41">
          <mxGeometry width="230" height="100" as="geometry" />
        </mxCell>
        <mxCell id="UK8yWLkQY4NRwHUQAjbO-12" value="seed0" style="shape=cylinder3;whiteSpace=wrap;html=1;boundedLbl=1;backgroundOutline=1;size=15;fillColor=#d5e8d4;strokeColor=#82b366;movable=1;resizable=1;rotatable=1;deletable=1;editable=1;locked=0;connectable=1;" vertex="1" parent="UK8yWLkQY4NRwHUQAjbO-41">
          <mxGeometry x="20" y="34" width="50" height="60" as="geometry" />
        </mxCell>
        <mxCell id="UK8yWLkQY4NRwHUQAjbO-13" value="seed1" style="shape=cylinder3;whiteSpace=wrap;html=1;boundedLbl=1;backgroundOutline=1;size=15;fillColor=#d5e8d4;strokeColor=#82b366;movable=1;resizable=1;rotatable=1;deletable=1;editable=1;locked=0;connectable=1;" vertex="1" parent="UK8yWLkQY4NRwHUQAjbO-41">
          <mxGeometry x="90" y="34" width="50" height="60" as="geometry" />
        </mxCell>
        <mxCell id="UK8yWLkQY4NRwHUQAjbO-18" value="seed2" style="shape=cylinder3;whiteSpace=wrap;html=1;boundedLbl=1;backgroundOutline=1;size=15;fillColor=#d5e8d4;strokeColor=#82b366;movable=1;resizable=1;rotatable=1;deletable=1;editable=1;locked=0;connectable=1;" vertex="1" parent="UK8yWLkQY4NRwHUQAjbO-41">
          <mxGeometry x="163" y="36" width="50" height="60" as="geometry" />
        </mxCell>
        <mxCell id="UK8yWLkQY4NRwHUQAjbO-24" value="&lt;span style=&quot;font-size: 16px;&quot;&gt;&lt;b&gt;lgb model&lt;/b&gt;&lt;/span&gt;" style="rounded=0;whiteSpace=wrap;html=1;verticalAlign=top;fillColor=#f0a30a;fontColor=#000000;strokeColor=#BD7000;movable=1;resizable=1;rotatable=1;deletable=1;editable=1;locked=0;connectable=1;container=0;" vertex="1" parent="UK8yWLkQY4NRwHUQAjbO-41">
          <mxGeometry x="289" width="120" height="100" as="geometry" />
        </mxCell>
        <mxCell id="UK8yWLkQY4NRwHUQAjbO-25" value="" style="shape=cylinder3;whiteSpace=wrap;html=1;boundedLbl=1;backgroundOutline=1;size=15;fillColor=#fad9d5;strokeColor=#ae4132;movable=1;resizable=1;rotatable=1;deletable=1;editable=1;locked=0;connectable=1;" vertex="1" parent="UK8yWLkQY4NRwHUQAjbO-41">
          <mxGeometry x="324" y="34" width="50" height="60" as="geometry" />
        </mxCell>
        <mxCell id="UK8yWLkQY4NRwHUQAjbO-36" value="&lt;span style=&quot;font-size: 16px;&quot;&gt;&lt;b&gt;lgb model&lt;/b&gt;&lt;/span&gt;" style="rounded=0;whiteSpace=wrap;html=1;verticalAlign=top;fillColor=#f0a30a;fontColor=#000000;strokeColor=#BD7000;movable=1;resizable=1;rotatable=1;deletable=1;editable=1;locked=0;connectable=1;container=0;" vertex="1" parent="UK8yWLkQY4NRwHUQAjbO-41">
          <mxGeometry x="109" y="186" width="230" height="100" as="geometry" />
        </mxCell>
        <mxCell id="UK8yWLkQY4NRwHUQAjbO-39" style="edgeStyle=orthogonalEdgeStyle;rounded=0;orthogonalLoop=1;jettySize=auto;html=1;entryX=0.5;entryY=0;entryDx=0;entryDy=0;" edge="1" parent="UK8yWLkQY4NRwHUQAjbO-41" source="UK8yWLkQY4NRwHUQAjbO-17" target="UK8yWLkQY4NRwHUQAjbO-36">
          <mxGeometry relative="1" as="geometry" />
        </mxCell>
        <mxCell id="UK8yWLkQY4NRwHUQAjbO-40" style="edgeStyle=orthogonalEdgeStyle;rounded=0;orthogonalLoop=1;jettySize=auto;html=1;entryX=0.5;entryY=0;entryDx=0;entryDy=0;" edge="1" parent="UK8yWLkQY4NRwHUQAjbO-41" source="UK8yWLkQY4NRwHUQAjbO-24" target="UK8yWLkQY4NRwHUQAjbO-36">
          <mxGeometry relative="1" as="geometry" />
        </mxCell>
        <mxCell id="UK8yWLkQY4NRwHUQAjbO-38" value="" style="shape=cylinder3;whiteSpace=wrap;html=1;boundedLbl=1;backgroundOutline=1;size=15;fillColor=#fad9d5;strokeColor=#ae4132;movable=1;resizable=1;rotatable=1;deletable=1;editable=1;locked=0;connectable=1;" vertex="1" parent="UK8yWLkQY4NRwHUQAjbO-41">
          <mxGeometry x="203" y="216" width="50" height="60" as="geometry" />
        </mxCell>
        <mxCell id="UK8yWLkQY4NRwHUQAjbO-42" value="&lt;font style=&quot;font-size: 16px;&quot;&gt;&lt;b&gt;后处理&lt;/b&gt;&lt;/font&gt;" style="shape=process;whiteSpace=wrap;html=1;backgroundOutline=1;fillColor=#f8cecc;gradientColor=#ea6b66;strokeColor=#b85450;" vertex="1" parent="1">
          <mxGeometry x="450" y="680" width="120" height="60" as="geometry" />
        </mxCell>
        <mxCell id="UK8yWLkQY4NRwHUQAjbO-53" value="&lt;span style=&quot;font-size: 16px;&quot;&gt;&lt;b&gt;打分&lt;/b&gt;&lt;/span&gt;" style="shape=parallelogram;perimeter=parallelogramPerimeter;whiteSpace=wrap;html=1;fixedSize=1;fillColor=#1ba1e2;strokeColor=#006EAF;fontColor=#ffffff;" vertex="1" parent="1">
          <mxGeometry x="450" y="901" width="120" height="60" as="geometry" />
        </mxCell>
        <mxCell id="UK8yWLkQY4NRwHUQAjbO-54" value="" style="shape=flexArrow;endArrow=classic;html=1;rounded=0;" edge="1" parent="1">
          <mxGeometry width="50" height="50" relative="1" as="geometry">
            <mxPoint x="513" y="800" as="sourcePoint" />
            <mxPoint x="513" y="890" as="targetPoint" />
          </mxGeometry>
        </mxCell>
        <mxCell id="UK8yWLkQY4NRwHUQAjbO-55" value="" style="shape=singleArrow;whiteSpace=wrap;html=1;" vertex="1" parent="1">
          <mxGeometry x="630" y="1250" width="100" height="60" as="geometry" />
        </mxCell>
        <mxCell id="UK8yWLkQY4NRwHUQAjbO-56" value="&lt;font style=&quot;font-size: 16px;&quot;&gt;&lt;b&gt;初始化&lt;/b&gt;&lt;/font&gt;" style="text;html=1;align=center;verticalAlign=middle;resizable=0;points=[];autosize=1;strokeColor=none;fillColor=none;" vertex="1" parent="1">
          <mxGeometry x="630" y="1230" width="70" height="30" as="geometry" />
        </mxCell>
        <mxCell id="UK8yWLkQY4NRwHUQAjbO-57" value="截图占位" style="text;html=1;align=center;verticalAlign=middle;resizable=0;points=[];autosize=1;strokeColor=none;fillColor=none;" vertex="1" parent="1">
          <mxGeometry x="-130" y="80" width="70" height="30" as="geometry" />
        </mxCell>
        <mxCell id="UK8yWLkQY4NRwHUQAjbO-58" value="截图占位" style="text;html=1;align=center;verticalAlign=middle;resizable=0;points=[];autosize=1;strokeColor=none;fillColor=none;" vertex="1" parent="1">
          <mxGeometry x="475" y="1000" width="70" height="30" as="geometry" />
        </mxCell>
        <mxCell id="UK8yWLkQY4NRwHUQAjbO-59" value="" style="shape=singleArrow;whiteSpace=wrap;html=1;" vertex="1" parent="1">
          <mxGeometry x="90" y="475" width="100" height="60" as="geometry" />
        </mxCell>
        <mxCell id="UK8yWLkQY4NRwHUQAjbO-60" value="&lt;font style=&quot;font-size: 16px;&quot;&gt;&lt;b&gt;初始化&lt;/b&gt;&lt;/font&gt;" style="text;html=1;align=center;verticalAlign=middle;resizable=0;points=[];autosize=1;strokeColor=none;fillColor=none;" vertex="1" parent="1">
          <mxGeometry x="100" y="455" width="70" height="30" as="geometry" />
        </mxCell>
      </root>
    </mxGraphModel>
  </diagram>
</mxfile>
